<svg version="1.1" id="Layer_1" xmlns="http://www.w3.org/2000/svg"
	 width="45px" height="45px" viewBox="0 0 100 100" >
<circle  fill="#581d22" cx="50" cy="50" r="50"/>
<path fill="#FFFFFF" d="M35.61,71.918c-3.956,0-7.157,3.039-7.157,6.754c0,3.713,3.201,6.752,7.157,6.752
	c3.958,0,7.195-3.039,7.195-6.752C42.805,74.957,39.568,71.918,35.61,71.918z M14.025,17.89v6.753h7.195l12.953,25.628l-4.858,8.273
	c-0.573,0.947-0.9,2.063-0.9,3.242c0,3.713,3.239,6.752,7.195,6.752h43.169v-6.752H37.124c-0.506,0-0.899-0.369-0.899-0.846
	l0.104-0.404l3.239-5.504h26.803c2.699,0,5.072-1.385,6.296-3.475L85.545,29.64c0.289-0.473,0.429-1.046,0.429-1.62
	c0-1.856-1.616-3.376-3.598-3.376H29.174l-3.383-6.753H14.025z M71.584,71.918c-3.956,0-7.156,3.039-7.156,6.754
	c0,3.713,3.2,6.752,7.156,6.752c3.959,0,7.195-3.039,7.195-6.752C78.779,74.957,75.543,71.918,71.584,71.918z"/>
</svg>
